<svg xmlns="http://www.w3.org/2000/svg" xml:space="preserve" width="100%" height="100%" version="1.1" style="shape-rendering:geometricPrecision; text-rendering:geometricPrecision; image-rendering:optimizeQuality; fill-rule:evenodd; clip-rule:evenodd" viewBox="0 0 2724 3312" xmlns:xlink="http://www.w3.org/1999/xlink">
		 <defs>
		  <style type="text/css">

		    .fil00 {fill:#ffffff}

		  </style>
		 </defs>
		 <g id="Capa_x0020_1">
		  <metadata id="CorelCorpID_0Corel-Layer"></metadata>
		  <path class="fil00" id="pat-right" d="M1358 2950c20,19 192,75 226,85 121,34 -105,43 -55,95 42,2 183,-17 191,-21 64,57 131,144 252,151 -5,-64 -4,-74 -44,-112 -17,-17 -25,-17 -42,-29 -4,-3 -17,-12 -21,-15 -29,-23 -6,2 -31,-30 101,-22 170,-18 269,-30 45,-6 87,-18 130,-33 17,-100 -310,-44 -317,-43 -211,6 -215,-27 -352,-85 -93,-61 -140,-399 -189,-440 -87,-73 -232,42 -240,84 -18,93 178,380 223,423z"></path>
		  <path class="fil00" id="pat-left" d="M875 3065l-164 78c-49,33 -32,3 -43,58 174,38 267,-113 409,-69 124,38 214,202 348,177 0,-77 -7,-83 -63,-123 -38,-27 -111,-71 -145,-96 60,-9 213,-4 211,-22 2,-56 -61,-72 -135,-62 -75,11 -185,-8 -229,-29 -65,-31 -244,-237 -352,-536 -86,-237 -334,207 -260,315 94,134 321,126 423,309z"></path>
		  <path class="fil00" d="M1082 2751c17,9 80,56 82,57 20,6 51,28 80,53 152,79 288,-6 377,-122 52,-67 94,-53 130,-66 89,-73 98,-174 196,-245l163 -136c55,-47 25,-28 63,-80 63,-86 52,-7 114,-79 6,-8 26,-38 29,-44 64,-112 -20,-45 49,-142 67,-94 60,-192 57,-297 -3,-103 19,-26 24,-116 12,-208 -287,-316 -192,-515 34,-71 79,-33 221,-189 2,-2 6,-7 10,-10l239 20c5,-176 -133,-213 -171,-274 39,-459 -381,-616 -759,-553l-325 134c-130,61 -288,286 -330,377 -30,64 -63,111 -85,164 -53,130 -26,232 -100,341 -105,155 -495,134 -616,322 -35,56 -45,126 -157,197l-98 76c-12,12 -19,15 -28,25 -69,79 -37,135 -42,176 -26,193 -13,78 47,260 20,59 0,20 30,75 58,105 123,126 150,201 55,150 20,303 257,435 289,87 282,-17 370,-50 62,-23 155,-25 215,5z"></path>
		 </g>
		</svg>